<svg xmlns="http://www.w3.org/2000/svg" viewBox="0 0 32 32" width="32" height="32">
  <defs>
    <linearGradient id="glow" x1="0%" y1="0%" x2="100%" y2="100%">
      <stop offset="0%" style="stop-color:#667eea"/>
      <stop offset="100%" style="stop-color:#764ba2"/>
    </linearGradient>
  </defs>
  
  <!-- Background -->
  <rect width="32" height="32" rx="6" fill="url(#glow)"/>
  
  <!-- Letter G -->
  <path d="M16 8c-4.4 0-8 3.6-8 8s3.6 8 8 8c2.6 0 4.9-1.3 6.3-3.3l-2.4-1.4c-0.9 1.2-2.3 2-3.9 2-2.8 0-5-2.2-5-5s2.2-5 5-5c1.4 0 2.6 0.6 3.5 1.5L16 13v2h6v-1c0-3.9-3.1-7-7-7z" fill="white"/>
  
  <!-- Small shine effect -->
  <ellipse cx="12" cy="10" rx="2" ry="1" fill="rgba(255,255,255,0.3)"/>
</svg>
